<svg width="85" height="98" viewBox="0 0 85 98" fill="none" xmlns="http://www.w3.org/2000/svg">
<mask id="mask0" mask-type="alpha" maskUnits="userSpaceOnUse" x="0" y="0" width="85" height="98">
<rect width="85" height="98" fill="#C4C4C4"/>
</mask>
<g mask="url(#mask0)">
<path d="M26.912 39.968C25.376 40.5653 24.1813 40.864 23.328 40.864C20.768 40.864 19.3387 40.5013 19.04 39.776C14.7733 28.8107 11.9573 21.7493 10.592 18.592C10.464 19.744 10.1227 22.4107 9.568 26.592C8.416 34.784 7.84 41.5893 7.84 47.008C7.84 48.3307 7.92533 50.1013 8.096 52.32C5.10933 52.32 3.08267 51.9787 2.016 51.296C0.992 50.5707 0.48 49.568 0.48 48.288C0.48 47.8613 1.184 42.0587 2.592 30.88C4.04267 19.7013 4.768 11.9147 4.768 7.52V7.2C3.53067 5.19466 2.22933 3.552 0.864 2.272C2.44267 1.16267 4.34133 0.607998 6.56 0.607998C9.376 0.607998 11.552 1.93066 13.088 4.576C14.624 7.17867 17.632 14.368 22.112 26.144L25.056 33.696C25.312 33.2693 25.696 32.6933 26.208 31.968C36.6187 16.5653 41.9733 6.112 42.272 0.607998C42.272 0.650664 42.784 0.714664 43.808 0.799999C44.832 0.842665 45.92 1.056 47.072 1.44C48.2667 1.78133 49.12 2.336 49.632 3.104C50.1867 3.82933 50.528 4.55466 50.656 5.28C50.784 5.96266 50.848 7.15733 50.848 8.864C50.848 10.528 50.144 16.1813 48.736 25.824C47.328 35.4667 46.624 42.2293 46.624 46.112C46.624 49.952 46.9227 52.576 47.52 53.984C43.8933 53.0453 41.4187 51.808 40.096 50.272C38.7733 48.6933 38.112 46.5173 38.112 43.744C38.112 42.1227 38.5387 38.1333 39.392 31.776C40.288 25.4187 40.9067 20.3413 41.248 16.544C39.5413 19.488 37.1093 23.52 33.952 28.64C30.8373 33.76 28.96 36.8107 28.32 37.792C27.68 38.7307 27.2107 39.456 26.912 39.968Z" fill="#3D7451"/>
<path d="M60.92 92.384C68.0453 92.384 72.0987 84 73.08 67.232C71.5013 69.4933 69.6027 71.2213 67.384 72.416C65.1653 73.568 62.8827 74.144 60.536 74.144C56.44 74.144 52.92 72.48 49.976 69.152C47.032 65.824 45.56 61.1947 45.56 55.264C45.56 47.1147 47.672 40.032 51.896 34.016C53.944 31.072 56.5893 28.7467 59.832 27.04C63.0747 25.2907 66.7653 24.416 70.904 24.416C75.0853 24.416 78.264 25.504 80.44 27.68C82.6587 29.8133 83.768 32.4587 83.768 35.616C83.768 38.7733 82.7867 41.2693 80.824 43.104C78.8613 44.9387 76.536 45.856 73.848 45.856C72.0987 45.856 70.4347 45.4293 68.856 44.576C67.2773 43.7227 66.0613 42.4853 65.208 40.864C66.36 41.1627 67.448 41.312 68.472 41.312C70.776 41.312 72.5893 40.6507 73.912 39.328C75.2773 38.0053 75.96 36.512 75.96 34.848C75.96 33.184 75.4053 31.8187 74.296 30.752C73.1867 29.6427 71.608 29.088 69.56 29.088C66.872 29.088 64.4187 30.4747 62.2 33.248C60.024 35.9787 58.3813 39.3067 57.272 43.232C56.1627 47.1147 55.608 51.1467 55.608 55.328C55.608 59.5093 56.4187 62.7947 58.04 65.184C59.704 67.5307 61.7093 68.704 64.056 68.704C66.4027 68.704 68.4293 67.552 70.136 65.248C71.8853 62.944 72.76 59.8293 72.76 55.904C72.76 54.9227 72.696 53.92 72.568 52.896V52.704C73.5067 52.6187 74.488 52.576 75.512 52.576C77.9867 52.576 79.6933 53.0027 80.632 53.856C81.6133 54.6667 82.104 56.0747 82.104 58.08C82.104 71.0933 79.7787 81.248 75.128 88.544C73.5067 91.0613 71.3947 93.1093 68.792 94.688C66.1893 96.2667 63.2453 97.056 59.96 97.056C55.48 97.056 52.1093 95.904 49.848 93.6C47.6293 91.3387 46.52 88.736 46.52 85.792C46.52 82.848 47.3093 80.48 48.888 78.688C50.4667 76.9387 52.4293 76.064 54.776 76.064C56.056 76.064 57.464 76.4267 59 77.152C56.7387 80.0107 55.608 83.0187 55.608 86.176C55.608 88.0107 56.0347 89.504 56.888 90.656C57.7413 91.808 59.0853 92.384 60.92 92.384Z" fill="#3D7451"/>
</g>
</svg>
